<?xml version="1.0" encoding="UTF-8" standalone="no"?>
<!-- Generated by graphviz version 2.43.0 (0)
 -->

<!-- Title: systemd Pages: 1 -->

<svg
   width="5540pt"
   height="188pt"
   viewBox="0.00 0.00 5540.13 188.00"
   version="1.1"
   id="svg434"
   sodipodi:docname="default_target.svg"
   inkscape:version="1.1.2 (0a00cf5339, 2022-02-04)"
   xmlns:inkscape="http://www.inkscape.org/namespaces/inkscape"
   xmlns:sodipodi="http://sodipodi.sourceforge.net/DTD/sodipodi-0.dtd"
   xmlns="http://www.w3.org/2000/svg"
   xmlns:svg="http://www.w3.org/2000/svg">
  <defs
     id="defs438" />
  <sodipodi:namedview
     id="namedview436"
     pagecolor="#ffffff"
     bordercolor="#666666"
     borderopacity="1.0"
     inkscape:pageshadow="2"
     inkscape:pageopacity="0.0"
     inkscape:pagecheckerboard="0"
     inkscape:document-units="pt"
     showgrid="false"
     inkscape:zoom="1.0246666"
     inkscape:cx="6937.3781"
     inkscape:cy="125.40664"
     inkscape:window-width="1846"
     inkscape:window-height="1016"
     inkscape:window-x="74"
     inkscape:window-y="27"
     inkscape:window-maximized="1"
     inkscape:current-layer="svg434" />
  <g
     id="graph0"
     class="graph"
     transform="scale(1 1) rotate(0) translate(4 184)">
    <title
       id="title2">systemd</title>
    <polygon
       fill="white"
       stroke="transparent"
       points="-4,4 -4,-184 5536.13,-184 5536.13,4 -4,4"
       id="polygon4" />
    <!-- systemd&#45;update&#45;utmp&#45;runlevel.service -->
    <g
       id="node1"
       class="node">
      <title
         id="title6">systemd-update-utmp-runlevel.service</title>
      <ellipse
         fill="none"
         stroke="black"
         cx="2658.74"
         cy="-162"
         rx="189.27"
         ry="18"
         id="ellipse8" />
      <text
         text-anchor="middle"
         x="2658.74"
         y="-158.3"
         font-family="Times,serif"
         font-size="14.00"
         id="text10">systemd-update-utmp-runlevel.service</text>
    </g>
    <!-- graphical.target -->
    <g
       id="node2"
       class="node">
      <title
         id="title13">graphical.target</title>
      <ellipse
         fill="none"
         stroke="black"
         cx="2658.74"
         cy="-90"
         rx="85.59"
         ry="18"
         id="ellipse15" />
      <text
         text-anchor="middle"
         x="2658.74"
         y="-86.3"
         font-family="Times,serif"
         font-size="14.00"
         id="text17">graphical.target</text>
    </g>
    <!-- systemd&#45;update&#45;utmp&#45;runlevel.service&#45;&gt;graphical.target -->
    <g
       id="edge1"
       class="edge">
      <title
         id="title20">systemd-update-utmp-runlevel.service-&gt;graphical.target</title>
      <path
         fill="none"
         stroke="green"
         d="M2652.83,-143.7C2652.03,-135.98 2651.8,-126.71 2652.15,-118.11"
         id="path22" />
      <polygon
         fill="green"
         stroke="green"
         points="2655.64,-118.32 2652.85,-108.1 2648.66,-117.84 2655.64,-118.32"
         id="polygon24" />
    </g>
    <!-- graphical.target&#45;&gt;systemd&#45;update&#45;utmp&#45;runlevel.service -->
    <g
       id="edge29"
       class="edge">
      <title
         id="title27">graphical.target-&gt;systemd-update-utmp-runlevel.service</title>
      <path
         fill="none"
         stroke="#a8a8a8"
         d="M2664.64,-108.1C2665.44,-115.79 2665.68,-125.05 2665.35,-133.67"
         id="path29" />
      <polygon
         fill="#a8a8a8"
         stroke="#a8a8a8"
         points="2661.85,-133.48 2664.66,-143.7 2668.83,-133.96 2661.85,-133.48"
         id="polygon31" />
    </g>
    <!-- shutdown.target -->
    <g
       id="node3"
       class="node">
      <title
         id="title34">shutdown.target</title>
      <ellipse
         fill="none"
         stroke="black"
         cx="87.74"
         cy="-18"
         rx="87.99"
         ry="18"
         id="ellipse36" />
      <text
         text-anchor="middle"
         x="87.74"
         y="-14.3"
         font-family="Times,serif"
         font-size="14.00"
         id="text38">shutdown.target</text>
    </g>
    <!-- graphical.target&#45;&gt;shutdown.target -->
    <g
       id="edge38"
       class="edge">
      <title
         id="title41">graphical.target-&gt;shutdown.target</title>
      <path
         fill="none"
         stroke="red"
         d="M2572.87,-88.92C2192.19,-88.29 655.03,-82.86 175.74,-36 168.83,-35.32 161.66,-34.43 154.53,-33.41"
         id="path43" />
      <polygon
         fill="red"
         stroke="red"
         points="154.57,-29.88 144.16,-31.84 153.52,-36.8 154.57,-29.88"
         id="polygon45" />
    </g>
    <!-- snap&#45;snap\x2dstore&#45;638.mount -->
    <g
       id="node4"
       class="node">
      <title
         id="title48">snap-snap\x2dstore-638.mount</title>
      <ellipse
         fill="none"
         stroke="black"
         cx="344.74"
         cy="-18"
         rx="151.37"
         ry="18"
         id="ellipse50" />
      <text
         text-anchor="middle"
         x="344.74"
         y="-14.3"
         font-family="Times,serif"
         font-size="14.00"
         id="text52">snap-snapx2dstore-638.mount</text>
    </g>
    <!-- graphical.target&#45;&gt;snap&#45;snap\x2dstore&#45;638.mount -->
    <g
       id="edge3"
       class="edge">
      <title
         id="title55">graphical.target-&gt;snap-snap\x2dstore-638.mount</title>
      <path
         fill="none"
         stroke="green"
         d="M2572.87,-89.38C2281.17,-90.19 1302.02,-88.67 495.74,-36 482.17,-35.11 467.98,-33.95 453.95,-32.65"
         id="path57" />
      <polygon
         fill="green"
         stroke="green"
         points="454.06,-29.14 443.77,-31.67 453.39,-36.11 454.06,-29.14"
         id="polygon59" />
    </g>
    <!-- graphical.target&#45;&gt;snap&#45;snap\x2dstore&#45;638.mount -->
    <g
       id="edge22"
       class="edge">
      <title
         id="title62">graphical.target-&gt;snap-snap\x2dstore-638.mount</title>
      <path
         fill="none"
         stroke="#a8a8a8"
         d="M2572.84,-89.4C2282.75,-90.16 1313.25,-88.22 513.74,-36 497.08,-34.91 479.48,-33.4 462.17,-31.73"
         id="path64" />
      <polygon
         fill="#a8a8a8"
         stroke="#a8a8a8"
         points="462.31,-28.23 452.02,-30.73 461.63,-35.2 462.31,-28.23"
         id="polygon66" />
    </g>
    <!-- snap&#45;gnome\x2d3\x2d28\x2d1804&#45;161.mount -->
    <g
       id="node5"
       class="node">
      <title
         id="title69">snap-gnome\x2d3\x2d28\x2d1804-161.mount</title>
      <ellipse
         fill="none"
         stroke="black"
         cx="725.74"
         cy="-18"
         rx="211.76"
         ry="18"
         id="ellipse71" />
      <text
         text-anchor="middle"
         x="725.74"
         y="-14.3"
         font-family="Times,serif"
         font-size="14.00"
         id="text73">snap-gnomex2d3x2d28x2d1804-161.mount</text>
    </g>
    <!-- graphical.target&#45;&gt;snap&#45;gnome\x2d3\x2d28\x2d1804&#45;161.mount -->
    <g
       id="edge4"
       class="edge">
      <title
         id="title76">graphical.target-&gt;snap-gnome\x2d3\x2d28\x2d1804-161.mount</title>
      <path
         fill="none"
         stroke="green"
         d="M2573.21,-87.8C2321.93,-83.9 1564.64,-69.8 937.74,-36 917.93,-34.93 897.13,-33.6 876.62,-32.17"
         id="path78" />
      <polygon
         fill="green"
         stroke="green"
         points="876.81,-28.67 866.59,-31.45 876.31,-35.65 876.81,-28.67"
         id="polygon80" />
    </g>
    <!-- graphical.target&#45;&gt;snap&#45;gnome\x2d3\x2d28\x2d1804&#45;161.mount -->
    <g
       id="edge34"
       class="edge">
      <title
         id="title83">graphical.target-&gt;snap-gnome\x2d3\x2d28\x2d1804-161.mount</title>
      <path
         fill="none"
         stroke="#a8a8a8"
         d="M2573.22,-87.67C2323.8,-83.59 1575.96,-69.44 955.74,-36 932.96,-34.77 908.88,-33.2 885.21,-31.51"
         id="path85" />
      <polygon
         fill="#a8a8a8"
         stroke="#a8a8a8"
         points="885.33,-28.01 875.1,-30.78 884.82,-34.99 885.33,-28.01"
         id="polygon87" />
    </g>
    <!-- rescue.service -->
    <g
       id="node6"
       class="node">
      <title
         id="title90">rescue.service</title>
      <ellipse
         fill="none"
         stroke="black"
         cx="1032.74"
         cy="-18"
         rx="77.19"
         ry="18"
         id="ellipse92" />
      <text
         text-anchor="middle"
         x="1032.74"
         y="-14.3"
         font-family="Times,serif"
         font-size="14.00"
         id="text94">rescue.service</text>
    </g>
    <!-- graphical.target&#45;&gt;rescue.service -->
    <g
       id="edge5"
       class="edge">
      <title
         id="title97">graphical.target-&gt;rescue.service</title>
      <path
         fill="none"
         stroke="green"
         d="M2573.23,-87.89C2291.87,-83.9 1396.95,-68.68 1110.74,-36 1104.86,-35.33 1098.79,-34.48 1092.74,-33.51"
         id="path99" />
      <polygon
         fill="green"
         stroke="green"
         points="1093.07,-30.02 1082.63,-31.79 1091.9,-36.92 1093.07,-30.02"
         id="polygon101" />
    </g>
    <!-- graphical.target&#45;&gt;rescue.service -->
    <g
       id="edge39"
       class="edge">
      <title
         id="title104">graphical.target-&gt;rescue.service</title>
      <path
         fill="none"
         stroke="red"
         d="M2573.29,-87.79C2294.34,-83.63 1412.46,-68.4 1128.74,-36 1119.55,-34.95 1109.88,-33.46 1100.34,-31.78"
         id="path106" />
      <polygon
         fill="red"
         stroke="red"
         points="1100.94,-28.34 1090.48,-29.99 1099.69,-35.22 1100.94,-28.34"
         id="polygon108" />
    </g>
    <!-- snap&#45;snapd\x2ddesktop\x2dintegration&#45;49.mount -->
    <g
       id="node7"
       class="node">
      <title
         id="title111">snap-snapd\x2ddesktop\x2dintegration-49.mount</title>
      <ellipse
         fill="none"
         stroke="black"
         cx="1361.74"
         cy="-18"
         rx="233.16"
         ry="18"
         id="ellipse113" />
      <text
         text-anchor="middle"
         x="1361.74"
         y="-14.3"
         font-family="Times,serif"
         font-size="14.00"
         id="text115">snap-snapdx2ddesktopx2dintegration-49.mount</text>
    </g>
    <!-- graphical.target&#45;&gt;snap&#45;snapd\x2ddesktop\x2dintegration&#45;49.mount -->
    <g
       id="edge6"
       class="edge">
      <title
         id="title118">graphical.target-&gt;snap-snapd\x2ddesktop\x2dintegration-49.mount</title>
      <path
         fill="none"
         stroke="green"
         d="M2575.55,-85.59C2396.1,-77.87 1959.72,-57.98 1594.74,-36 1573.96,-34.75 1552.19,-33.35 1530.64,-31.9"
         id="path120" />
      <polygon
         fill="green"
         stroke="green"
         points="1530.64,-28.39 1520.43,-31.21 1530.17,-35.37 1530.64,-28.39"
         id="polygon122" />
    </g>
    <!-- graphical.target&#45;&gt;snap&#45;snapd\x2ddesktop\x2dintegration&#45;49.mount -->
    <g
       id="edge25"
       class="edge">
      <title
         id="title125">graphical.target-&gt;snap-snapd\x2ddesktop\x2dintegration-49.mount</title>
      <path
         fill="none"
         stroke="#a8a8a8"
         d="M2575.8,-85.18C2398.8,-77.17 1971.31,-57.6 1612.74,-36 1589,-34.57 1563.96,-32.94 1539.25,-31.28"
         id="path127" />
      <polygon
         fill="#a8a8a8"
         stroke="#a8a8a8"
         points="1539.27,-27.77 1529.06,-30.59 1538.8,-34.75 1539.27,-27.77"
         id="polygon129" />
    </g>
    <!-- multi&#45;user.target -->
    <g
       id="node8"
       class="node">
      <title
         id="title132">multi-user.target</title>
      <ellipse
         fill="none"
         stroke="black"
         cx="1701.74"
         cy="-18"
         rx="89.08"
         ry="18"
         id="ellipse134" />
      <text
         text-anchor="middle"
         x="1701.74"
         y="-14.3"
         font-family="Times,serif"
         font-size="14.00"
         id="text136">multi-user.target</text>
    </g>
    <!-- graphical.target&#45;&gt;multi&#45;user.target -->
    <g
       id="edge7"
       class="edge">
      <title
         id="title139">graphical.target-&gt;multi-user.target</title>
      <path
         fill="none"
         stroke="green"
         d="M2573.96,-87.02C2418.17,-82.58 2076.41,-69.49 1790.74,-36 1784,-35.21 1777.02,-34.26 1770.06,-33.22"
         id="path141" />
      <polygon
         fill="green"
         stroke="green"
         points="1770.34,-29.72 1759.92,-31.64 1769.26,-36.64 1770.34,-29.72"
         id="polygon143" />
    </g>
    <!-- graphical.target&#45;&gt;multi&#45;user.target -->
    <g
       id="edge21"
       class="edge">
      <title
         id="title146">graphical.target-&gt;multi-user.target</title>
      <path
         fill="none"
         stroke="black"
         d="M2574.22,-86.71C2421.1,-81.99 2088.1,-68.75 1808.74,-36 1798.9,-34.85 1788.55,-33.36 1778.31,-31.74"
         id="path148" />
      <polygon
         fill="black"
         stroke="black"
         points="1778.56,-28.23 1768.13,-30.08 1777.44,-35.14 1778.56,-28.23"
         id="polygon150" />
    </g>
    <!-- gdm.service -->
    <g
       id="node9"
       class="node">
      <title
         id="title153">gdm.service</title>
      <ellipse
         fill="none"
         stroke="black"
         cx="1876.74"
         cy="-18"
         rx="67.69"
         ry="18"
         id="ellipse155" />
      <text
         text-anchor="middle"
         x="1876.74"
         y="-14.3"
         font-family="Times,serif"
         font-size="14.00"
         id="text157">gdm.service</text>
    </g>
    <!-- graphical.target&#45;&gt;gdm.service -->
    <g
       id="edge8"
       class="edge">
      <title
         id="title160">graphical.target-&gt;gdm.service</title>
      <path
         fill="none"
         stroke="green"
         d="M2574.28,-86.73C2440.06,-82.14 2170.45,-69.23 1944.74,-36 1940.2,-35.33 1935.53,-34.55 1930.86,-33.69"
         id="path162" />
      <polygon
         fill="green"
         stroke="green"
         points="1931.17,-30.18 1920.68,-31.7 1929.83,-37.05 1931.17,-30.18"
         id="polygon164" />
    </g>
    <!-- graphical.target&#45;&gt;gdm.service -->
    <g
       id="edge30"
       class="edge">
      <title
         id="title167">graphical.target-&gt;gdm.service</title>
      <path
         fill="none"
         stroke="#a8a8a8"
         d="M2574.54,-86.33C2443.23,-81.42 2182.23,-68.31 1962.74,-36 1954.85,-34.84 1946.55,-33.32 1938.35,-31.68"
         id="path169" />
      <polygon
         fill="#a8a8a8"
         stroke="#a8a8a8"
         points="1938.92,-28.22 1928.41,-29.62 1937.5,-35.08 1938.92,-28.22"
         id="polygon171" />
    </g>
    <!-- apport.service -->
    <g
       id="node10"
       class="node">
      <title
         id="title174">apport.service</title>
      <ellipse
         fill="none"
         stroke="black"
         cx="2039.74"
         cy="-18"
         rx="77.19"
         ry="18"
         id="ellipse176" />
      <text
         text-anchor="middle"
         x="2039.74"
         y="-14.3"
         font-family="Times,serif"
         font-size="14.00"
         id="text178">apport.service</text>
    </g>
    <!-- graphical.target&#45;&gt;apport.service -->
    <g
       id="edge9"
       class="edge">
      <title
         id="title181">graphical.target-&gt;apport.service</title>
      <path
         fill="none"
         stroke="green"
         d="M2577.84,-83.83C2471.48,-76.18 2279.33,-60.1 2116.74,-36 2111.6,-35.24 2106.31,-34.38 2101.01,-33.46"
         id="path183" />
      <polygon
         fill="green"
         stroke="green"
         points="2101.32,-29.96 2090.85,-31.63 2100.07,-36.85 2101.32,-29.96"
         id="polygon185" />
    </g>
    <!-- graphical.target&#45;&gt;apport.service -->
    <g
       id="edge26"
       class="edge">
      <title
         id="title188">graphical.target-&gt;apport.service</title>
      <path
         fill="none"
         stroke="#a8a8a8"
         d="M2579.37,-83.03C2476.47,-75.08 2291.81,-59.28 2134.74,-36 2126.32,-34.75 2117.47,-33.24 2108.69,-31.63"
         id="path190" />
      <polygon
         fill="#a8a8a8"
         stroke="#a8a8a8"
         points="2109.31,-28.19 2098.83,-29.79 2108.02,-35.07 2109.31,-28.19"
         id="polygon192" />
    </g>
    <!-- snap&#45;gnome\x2d3\x2d38\x2d2004&#45;119.mount -->
    <g
       id="node11"
       class="node">
      <title
         id="title195">snap-gnome\x2d3\x2d38\x2d2004-119.mount</title>
      <ellipse
         fill="none"
         stroke="black"
         cx="2346.74"
         cy="-18"
         rx="211.76"
         ry="18"
         id="ellipse197" />
      <text
         text-anchor="middle"
         x="2346.74"
         y="-14.3"
         font-family="Times,serif"
         font-size="14.00"
         id="text199">snap-gnomex2d3x2d38x2d2004-119.mount</text>
    </g>
    <!-- graphical.target&#45;&gt;snap&#45;gnome\x2d3\x2d38\x2d2004&#45;119.mount -->
    <g
       id="edge10"
       class="edge">
      <title
         id="title202">graphical.target-&gt;snap-gnome\x2d3\x2d38\x2d2004-119.mount</title>
      <path
         fill="none"
         stroke="green"
         d="M2599.5,-76.89C2549.37,-66.02 2477.31,-49.91 2422.92,-37.44"
         id="path204" />
      <polygon
         fill="green"
         stroke="green"
         points="2423.51,-33.99 2412.98,-35.16 2421.94,-40.81 2423.51,-33.99"
         id="polygon206" />
    </g>
    <!-- graphical.target&#45;&gt;snap&#45;gnome\x2d3\x2d38\x2d2004&#45;119.mount -->
    <g
       id="edge36"
       class="edge">
      <title
         id="title209">graphical.target-&gt;snap-gnome\x2d3\x2d38\x2d2004-119.mount</title>
      <path
         fill="none"
         stroke="#a8a8a8"
         d="M2605.47,-75.83C2558.08,-64.85 2488.02,-49.09 2432.72,-36.95"
         id="path211" />
      <polygon
         fill="#a8a8a8"
         stroke="#a8a8a8"
         points="2433.45,-33.52 2422.93,-34.8 2431.95,-40.36 2433.45,-33.52"
         id="polygon213" />
    </g>
    <!-- udisks2.service -->
    <g
       id="node12"
       class="node">
      <title
         id="title216">udisks2.service</title>
      <ellipse
         fill="none"
         stroke="#000000"
         cx="2658.74"
         cy="-18"
         rx="82.589996"
         ry="18.1"
         id="ellipse218" />
      <text
         text-anchor="middle"
         x="2658.74"
         y="-14.3"
         font-family="Times,serif"
         font-size="14.00"
         id="text220">udisks2.service</text>
    </g>
    <!-- graphical.target&#45;&gt;udisks2.service -->
    <g
       id="edge11"
       class="edge">
      <title
         id="title223">graphical.target-&gt;udisks2.service</title>
      <path
         fill="none"
         stroke="green"
         d="M2652.83,-71.7C2652.03,-63.98 2651.8,-54.71 2652.15,-46.11"
         id="path225" />
      <polygon
         fill="green"
         stroke="green"
         points="2655.64,-46.32 2652.85,-36.1 2648.66,-45.84 2655.64,-46.32"
         id="polygon227" />
    </g>
    <!-- graphical.target&#45;&gt;udisks2.service -->
    <g
       id="edge27"
       class="edge">
      <title
         id="title230">graphical.target-&gt;udisks2.service</title>
      <path
         fill="none"
         stroke="#a8a8a8"
         d="M2664.66,-71.7C2665.45,-63.98 2665.68,-54.71 2665.34,-46.11"
         id="path232" />
      <polygon
         fill="#a8a8a8"
         stroke="#a8a8a8"
         points="2668.83,-45.84 2664.64,-36.1 2661.84,-46.32 2668.83,-45.84"
         id="polygon234" />
    </g>
    <!-- power&#45;profiles&#45;daemon.service -->
    <g
       id="node13"
       class="node">
      <title
         id="title237">power-profiles-daemon.service</title>
      <ellipse
         fill="none"
         stroke="black"
         cx="2911.74"
         cy="-18"
         rx="152.97"
         ry="18"
         id="ellipse239" />
      <text
         text-anchor="middle"
         x="2911.74"
         y="-14.3"
         font-family="Times,serif"
         font-size="14.00"
         id="text241">power-profiles-daemon.service</text>
    </g>
    <!-- graphical.target&#45;&gt;power&#45;profiles&#45;daemon.service -->
    <g
       id="edge12"
       class="edge">
      <title
         id="title244">graphical.target-&gt;power-profiles-daemon.service</title>
      <path
         fill="none"
         stroke="green"
         d="M2704.69,-74.75C2742.48,-63.9 2796.61,-48.88 2840.08,-37.17"
         id="path246" />
      <polygon
         fill="green"
         stroke="green"
         points="2841,-40.54 2849.75,-34.57 2839.18,-33.78 2841,-40.54"
         id="polygon248" />
    </g>
    <!-- graphical.target&#45;&gt;power&#45;profiles&#45;daemon.service -->
    <g
       id="edge33"
       class="edge">
      <title
         id="title251">graphical.target-&gt;power-profiles-daemon.service</title>
      <path
         fill="none"
         stroke="#a8a8a8"
         d="M2711.74,-75.83C2752.05,-65.1 2807.51,-49.82 2849.85,-37.8"
         id="path253" />
      <polygon
         fill="#a8a8a8"
         stroke="#a8a8a8"
         points="2850.83,-41.16 2859.49,-35.06 2848.91,-34.43 2850.83,-41.16"
         id="polygon255" />
    </g>
    <!-- switcheroo&#45;control.service -->
    <g
       id="node14"
       class="node">
      <title
         id="title258">switcheroo-control.service</title>
      <ellipse
         fill="none"
         stroke="black"
         cx="3215.74"
         cy="-18"
         rx="133.48"
         ry="18"
         id="ellipse260" />
      <text
         text-anchor="middle"
         x="3215.74"
         y="-14.3"
         font-family="Times,serif"
         font-size="14.00"
         id="text262">switcheroo-control.service</text>
    </g>
    <!-- graphical.target&#45;&gt;switcheroo&#45;control.service -->
    <g
       id="edge13"
       class="edge">
      <title
         id="title265">graphical.target-&gt;switcheroo-control.service</title>
      <path
         fill="none"
         stroke="green"
         d="M2728.79,-79.6C2824.58,-67.25 2997.15,-45.54 3109.05,-31.74"
         id="path267" />
      <polygon
         fill="green"
         stroke="green"
         points="3109.52,-35.21 3119.01,-30.51 3108.66,-28.26 3109.52,-35.21"
         id="polygon269" />
    </g>
    <!-- graphical.target&#45;&gt;switcheroo&#45;control.service -->
    <g
       id="edge37"
       class="edge">
      <title
         id="title272">graphical.target-&gt;switcheroo-control.service</title>
      <path
         fill="none"
         stroke="#a8a8a8"
         d="M2731.66,-80.42C2829.4,-68.45 3003.27,-46.64 3113.89,-32.49"
         id="path274" />
      <polygon
         fill="#a8a8a8"
         stroke="#a8a8a8"
         points="3114.59,-35.92 3124.07,-31.18 3113.7,-28.98 3114.59,-35.92"
         id="polygon276" />
    </g>
    <!-- rescue.target -->
    <g
       id="node15"
       class="node">
      <title
         id="title279">rescue.target</title>
      <ellipse
         fill="none"
         stroke="black"
         cx="3440.74"
         cy="-18"
         rx="73.39"
         ry="18"
         id="ellipse281" />
      <text
         text-anchor="middle"
         x="3440.74"
         y="-14.3"
         font-family="Times,serif"
         font-size="14.00"
         id="text283">rescue.target</text>
    </g>
    <!-- graphical.target&#45;&gt;rescue.target -->
    <g
       id="edge14"
       class="edge">
      <title
         id="title286">graphical.target-&gt;rescue.target</title>
      <path
         fill="none"
         stroke="green"
         d="M2742.39,-85.83C2872.56,-80.3 3131.03,-66.43 3348.74,-36 3357.21,-34.82 3366.11,-33.29 3374.92,-31.65"
         id="path288" />
      <polygon
         fill="green"
         stroke="green"
         points="3375.63,-35.07 3384.79,-29.75 3374.31,-28.2 3375.63,-35.07"
         id="polygon290" />
    </g>
    <!-- graphical.target&#45;&gt;rescue.target -->
    <g
       id="edge40"
       class="edge">
      <title
         id="title293">graphical.target-&gt;rescue.target</title>
      <path
         fill="none"
         stroke="red"
         d="M2742.75,-86.29C2875.86,-81.08 3142.86,-67.29 3366.74,-36 3371.89,-35.28 3377.2,-34.44 3382.5,-33.51"
         id="path295" />
      <polygon
         fill="red"
         stroke="red"
         points="3383.44,-36.9 3392.65,-31.66 3382.18,-30.01 3383.44,-36.9"
         id="polygon297" />
    </g>
    <!-- var&#45;snap&#45;firefox&#45;common&#45;host\x2dhunspell.mount -->
    <g
       id="node16"
       class="node">
      <title
         id="title300">var-snap-firefox-common-host\x2dhunspell.mount</title>
      <ellipse
         fill="none"
         stroke="black"
         cx="3769.74"
         cy="-18"
         rx="237.46"
         ry="18"
         id="ellipse302" />
      <text
         text-anchor="middle"
         x="3769.74"
         y="-14.3"
         font-family="Times,serif"
         font-size="14.00"
         id="text304">var-snap-firefox-common-hostx2dhunspell.mount</text>
    </g>
    <!-- graphical.target&#45;&gt;var&#45;snap&#45;firefox&#45;common&#45;host\x2dhunspell.mount -->
    <g
       id="edge15"
       class="edge">
      <title
         id="title307">graphical.target-&gt;var-snap-firefox-common-host\x2dhunspell.mount</title>
      <path
         fill="none"
         stroke="green"
         d="M2739.58,-83.93C2891.34,-74.73 3229,-54.53 3513.74,-36 3537.49,-34.45 3562.52,-32.78 3587.26,-31.11"
         id="path309" />
      <polygon
         fill="green"
         stroke="green"
         points="3587.73,-34.59 3597.47,-30.42 3587.25,-27.6 3587.73,-34.59"
         id="polygon311" />
    </g>
    <!-- graphical.target&#45;&gt;var&#45;snap&#45;firefox&#45;common&#45;host\x2dhunspell.mount -->
    <g
       id="edge32"
       class="edge">
      <title
         id="title314">graphical.target-&gt;var-snap-firefox-common-host\x2dhunspell.mount</title>
      <path
         fill="none"
         stroke="#a8a8a8"
         d="M2740.72,-84.48C2895.54,-75.56 3241.19,-54.91 3531.74,-36 3552.48,-34.65 3574.19,-33.2 3595.71,-31.75"
         id="path316" />
      <polygon
         fill="#a8a8a8"
         stroke="#a8a8a8"
         points="3596.18,-35.22 3605.92,-31.05 3595.7,-28.24 3596.18,-35.22"
         id="polygon318" />
    </g>
    <!-- snap&#45;snap\x2dstore&#45;599.mount -->
    <g
       id="node17"
       class="node">
      <title
         id="title321">snap-snap\x2dstore-599.mount</title>
      <ellipse
         fill="none"
         stroke="black"
         cx="4176.74"
         cy="-18"
         rx="151.37"
         ry="18"
         id="ellipse323" />
      <text
         text-anchor="middle"
         x="4176.74"
         y="-14.3"
         font-family="Times,serif"
         font-size="14.00"
         id="text325">snap-snapx2dstore-599.mount</text>
    </g>
    <!-- graphical.target&#45;&gt;snap&#45;snap\x2dstore&#45;599.mount -->
    <g
       id="edge16"
       class="edge">
      <title
         id="title328">graphical.target-&gt;snap-snap\x2dstore-599.mount</title>
      <path
         fill="none"
         stroke="green"
         d="M2744.04,-87.55C2957.21,-83.57 3529.96,-70.44 4006.74,-36 4023.26,-34.81 4040.71,-33.26 4057.89,-31.59"
         id="path330" />
      <polygon
         fill="green"
         stroke="green"
         points="4058.36,-35.06 4067.97,-30.59 4057.67,-28.09 4058.36,-35.06"
         id="polygon332" />
    </g>
    <!-- graphical.target&#45;&gt;snap&#45;snap\x2dstore&#45;599.mount -->
    <g
       id="edge31"
       class="edge">
      <title
         id="title335">graphical.target-&gt;snap-snap\x2dstore-599.mount</title>
      <path
         fill="none"
         stroke="#a8a8a8"
         d="M2743.86,-87.71C2958.95,-83.94 3541.2,-70.93 4024.74,-36 4038.16,-35.03 4052.2,-33.83 4066.08,-32.52"
         id="path337" />
      <polygon
         fill="#a8a8a8"
         stroke="#a8a8a8"
         points="4066.54,-35.99 4076.16,-31.54 4065.87,-29.02 4066.54,-35.99"
         id="polygon339" />
    </g>
    <!-- snap&#45;gimp&#45;393.mount -->
    <g
       id="node18"
       class="node">
      <title
         id="title342">snap-gimp-393.mount</title>
      <ellipse
         fill="none"
         stroke="black"
         cx="4458.74"
         cy="-18"
         rx="112.38"
         ry="18"
         id="ellipse344" />
      <text
         text-anchor="middle"
         x="4458.74"
         y="-14.3"
         font-family="Times,serif"
         font-size="14.00"
         id="text346">snap-gimp-393.mount</text>
    </g>
    <!-- graphical.target&#45;&gt;snap&#45;gimp&#45;393.mount -->
    <g
       id="edge17"
       class="edge">
      <title
         id="title349">graphical.target-&gt;snap-gimp-393.mount</title>
      <path
         fill="none"
         stroke="green"
         d="M2744.82,-89.54C2991.72,-90.3 3722.96,-87.54 4327.74,-36 4340.48,-34.91 4353.92,-33.41 4367.15,-31.74"
         id="path351" />
      <polygon
         fill="green"
         stroke="green"
         points="4367.75,-35.19 4377.21,-30.44 4366.85,-28.25 4367.75,-35.19"
         id="polygon353" />
    </g>
    <!-- graphical.target&#45;&gt;snap&#45;gimp&#45;393.mount -->
    <g
       id="edge24"
       class="edge">
      <title
         id="title356">graphical.target-&gt;snap-gimp-393.mount</title>
      <path
         fill="none"
         stroke="#a8a8a8"
         d="M2744.54,-89.51C2993.03,-90.36 3734.06,-88.13 4345.74,-36 4355.41,-35.18 4365.48,-34.11 4375.47,-32.91"
         id="path358" />
      <polygon
         fill="#a8a8a8"
         stroke="#a8a8a8"
         points="4375.91,-36.39 4385.4,-31.68 4375.04,-29.44 4375.91,-36.39"
         id="polygon360" />
    </g>
    <!-- snap&#45;gtk2\x2dcommon\x2dthemes&#45;13.mount -->
    <g
       id="node19"
       class="node">
      <title
         id="title363">snap-gtk2\x2dcommon\x2dthemes-13.mount</title>
      <ellipse
         fill="none"
         stroke="black"
         cx="4800.74"
         cy="-18"
         rx="211.46"
         ry="18"
         id="ellipse365" />
      <text
         text-anchor="middle"
         x="4800.74"
         y="-14.3"
         font-family="Times,serif"
         font-size="14.00"
         id="text367">snap-gtk2x2dcommonx2dthemes-13.mount</text>
    </g>
    <!-- graphical.target&#45;&gt;snap&#45;gtk2\x2dcommon\x2dthemes&#45;13.mount -->
    <g
       id="edge18"
       class="edge">
      <title
         id="title370">graphical.target-&gt;snap-gtk2\x2dcommon\x2dthemes-13.mount</title>
      <path
         fill="none"
         stroke="green"
         d="M2744.42,-88.09C3013.55,-84.98 3865.65,-72.82 4570.74,-36 4593.69,-34.8 4617.96,-33.24 4641.8,-31.54"
         id="path372" />
      <polygon
         fill="green"
         stroke="green"
         points="4642.26,-35.02 4651.98,-30.81 4641.76,-28.04 4642.26,-35.02"
         id="polygon374" />
    </g>
    <!-- graphical.target&#45;&gt;snap&#45;gtk2\x2dcommon\x2dthemes&#45;13.mount -->
    <g
       id="edge28"
       class="edge">
      <title
         id="title377">graphical.target-&gt;snap-gtk2\x2dcommon\x2dthemes-13.mount</title>
      <path
         fill="none"
         stroke="#a8a8a8"
         d="M2744.49,-88.18C3015.43,-85.21 3876.99,-73.17 4588.74,-36 4608.72,-34.96 4629.7,-33.64 4650.38,-32.19"
         id="path379" />
      <polygon
         fill="#a8a8a8"
         stroke="#a8a8a8"
         points="4650.77,-35.67 4660.5,-31.48 4650.27,-28.69 4650.77,-35.67"
         id="polygon381" />
    </g>
    <!-- accounts&#45;daemon.service -->
    <g
       id="node20"
       class="node">
      <title
         id="title384">accounts-daemon.service</title>
      <ellipse
         fill="none"
         stroke="black"
         cx="5157.74"
         cy="-18"
         rx="127.28"
         ry="18"
         id="ellipse386" />
      <text
         text-anchor="middle"
         x="5157.74"
         y="-14.3"
         font-family="Times,serif"
         font-size="14.00"
         id="text388">accounts-daemon.service</text>
    </g>
    <!-- graphical.target&#45;&gt;accounts&#45;daemon.service -->
    <g
       id="edge19"
       class="edge">
      <title
         id="title391">graphical.target-&gt;accounts-daemon.service</title>
      <path
         fill="none"
         stroke="green"
         d="M2744.26,-88.21C3111.62,-84.71 4557.15,-69.22 5011.74,-36 5026.11,-34.95 5041.29,-33.46 5056.22,-31.78"
         id="path393" />
      <polygon
         fill="green"
         stroke="green"
         points="5056.97,-35.22 5066.5,-30.6 5056.17,-28.27 5056.97,-35.22"
         id="polygon395" />
    </g>
    <!-- graphical.target&#45;&gt;accounts&#45;daemon.service -->
    <g
       id="edge35"
       class="edge">
      <title
         id="title398">graphical.target-&gt;accounts-daemon.service</title>
      <path
         fill="none"
         stroke="#a8a8a8"
         d="M2744.19,-88.27C3113.33,-84.88 4572.59,-69.41 5029.74,-36 5041.02,-35.18 5052.79,-34.08 5064.44,-32.84"
         id="path400" />
      <polygon
         fill="#a8a8a8"
         stroke="#a8a8a8"
         points="5065.07,-36.29 5074.63,-31.71 5064.31,-29.33 5065.07,-36.29"
         id="polygon402" />
    </g>
    <!-- snap&#45;spotify&#45;60.mount -->
    <g
       id="node21"
       class="node">
      <title
         id="title405">snap-spotify-60.mount</title>
      <ellipse
         fill="none"
         stroke="black"
         cx="5417.74"
         cy="-18"
         rx="114.28"
         ry="18"
         id="ellipse407" />
      <text
         text-anchor="middle"
         x="5417.74"
         y="-14.3"
         font-family="Times,serif"
         font-size="14.00"
         id="text409">snap-spotify-60.mount</text>
    </g>
    <!-- graphical.target&#45;&gt;snap&#45;spotify&#45;60.mount -->
    <g
       id="edge20"
       class="edge">
      <title
         id="title412">graphical.target-&gt;snap-spotify-60.mount</title>
      <path
         fill="none"
         stroke="green"
         d="M2744.39,-88.6C3137.77,-86.6 4773.56,-76.05 5284.74,-36 5297.78,-34.98 5311.53,-33.5 5325.07,-31.83"
         id="path414" />
      <polygon
         fill="green"
         stroke="green"
         points="5325.88,-35.26 5335.36,-30.53 5325,-28.31 5325.88,-35.26"
         id="polygon416" />
    </g>
    <!-- graphical.target&#45;&gt;snap&#45;spotify&#45;60.mount -->
    <g
       id="edge23"
       class="edge">
      <title
         id="title419">graphical.target-&gt;snap-spotify-60.mount</title>
      <path
         fill="none"
         stroke="#a8a8a8"
         d="M2744.3,-88.63C3139.32,-86.7 4788.99,-76.25 5302.74,-36 5312.65,-35.22 5322.98,-34.18 5333.21,-32.99"
         id="path421" />
      <polygon
         fill="#a8a8a8"
         stroke="#a8a8a8"
         points="5333.88,-36.44 5343.39,-31.76 5333.04,-29.49 5333.88,-36.44"
         id="polygon423" />
    </g>
    <!-- shutdown.target&#45;&gt;graphical.target -->
    <g
       id="edge2"
       class="edge">
      <title
         id="title426">shutdown.target-&gt;graphical.target</title>
      <path
         fill="none"
         stroke="green"
         d="M152.19,-30.26C165.92,-32.56 180.3,-34.69 193.74,-36 666.3,-82.2 2167.24,-88.13 2562.57,-88.89"
         id="path428" />
      <polygon
         fill="green"
         stroke="green"
         points="2562.82,-92.39 2572.83,-88.91 2562.83,-85.39 2562.82,-92.39"
         id="polygon430" />
    </g>
  </g>
  <text
     xml:space="preserve"
     style="font-style:normal;font-weight:normal;font-size:30.0007px;line-height:1.25;font-family:sans-serif;fill:#000000;fill-opacity:1;stroke:none;stroke-width:0.750018"
     x="2094.0791"
     y="-63.487629"
     id="text2972"><tspan
       sodipodi:role="line"
       id="tspan2970"
       style="font-size:20.0005px;fill:#000000;fill-opacity:1;stroke-width:0.750018"
       x="2094.0791"
       y="-63.487629">   Color legend: black     = Requires</tspan><tspan
       sodipodi:role="line"
       style="font-size:20.0005px;fill:#000000;fill-opacity:1;stroke-width:0.750018"
       x="2094.0791"
       y="-25.986753"
       id="tspan2974">                 dark blue = Requisite</tspan><tspan
       sodipodi:role="line"
       style="font-size:20.0005px;fill:#000000;fill-opacity:1;stroke-width:0.750018"
       x="2094.0791"
       y="11.514123"
       id="tspan2976">                 dark grey = Wants</tspan><tspan
       sodipodi:role="line"
       style="font-size:20.0005px;fill:#000000;fill-opacity:1;stroke-width:0.750018"
       x="2094.0791"
       y="49.014996"
       id="tspan2978">                 red       = Conflicts</tspan><tspan
       sodipodi:role="line"
       style="font-size:20.0005px;fill:#000000;fill-opacity:1;stroke-width:0.750018"
       x="2094.0791"
       y="86.515877"
       id="tspan2980">                 green     = After</tspan><tspan
       sodipodi:role="line"
       style="fill:#000000;fill-opacity:1;stroke-width:0.750018"
       x="2094.0791"
       y="124.01675"
       id="tspan2982" /></text>
</svg>
